<?xml version="1.0" encoding="UTF-8" standalone="no"?>
<svg
   viewBox="0 0 16 16"
   xmlns="http://www.w3.org/2000/svg">
  <defs
     id="defs1">
    <style
       id="style1">
            .cls1 {
                fill: #777;
            }
        </style>
  </defs>
  <rect
     width="16"
     height="16"
     id="rect1"
     class="cls1" />
  <rect
     x="1"
     y="1"
     width="14"
     height="14"
     id="rect2"
     style="fill:#fff;" />
  <path
     class="cls1"
     d="M13.72,4.44v1H8.16v-1Z"
     id="path5" />
  <path
     class="cls1"
     d="M13.72,7.35v1H2.6v-1Z"
     id="path6" />
  <path
     class="cls1"
     d="M8.16,10.35v1H2.6v-1Z"
     id="path7" />
  <path
     d="m 3.40,6.08 c 0.52,0 0.91,-0.27 0.91,-0.78 0,-0.45 -0.44,-0.72 -0.91,-0.72 l -0.15,0.00 c 0.01,-0.82 0.45,-1.31 1.32,-1.8 l -0.40,-0.54 c -1.21,0.57 -1.87,1.40 -1.87,2.53 0,0.83 0.40,1.29 1.11,1.29 z m 3.08,0 c 0.52,0 0.92,-0.27 0.92,-0.78 0,-0.45 -0.45,-0.72 -0.92,-0.72 l -0.13,0.00 c 0.01,-0.82 0.46,-1.31 1.30,-1.8 l -0.39,-0.54 c -1.21,0.57 -1.87,1.40 -1.87,2.53 0,0.83 0.40,1.29 1.1,1.29 z"
     id="text1"
     class="cls1" />
  <path
     d="m 12.85,9.65 c -0.52,0 -0.91,0.27 -0.91,0.78 0,0.45 0.44,0.72 0.91,0.72 l 0.15,-0.00 c -0.01,0.81 -0.45,1.31 -1.32,1.79 l 0.40,0.54 c 1.21,-0.57 1.87,-1.40 1.87,-2.53 0,-0.83 -0.40,-1.29 -1.11,-1.29 z m -3.07,0 c -0.52,0 -0.92,0.27 -0.92,0.78 0,0.45 0.45,0.72 0.92,0.72 l 0.13,-0.00 c -0.01,0.81 -0.45,1.31 -1.29,1.79 l 0.38,0.54 c 1.20,-0.57 1.86,-1.40 1.86,-2.53 0,-0.83 -0.40,-1.29 -1.09,-1.29 z"
     id="text2"
     class="cls1" />
</svg>
