<?xml version="1.0" standalone="no"?><!DOCTYPE svg PUBLIC "-//W3C//DTD SVG 1.1//EN" "http://www.w3.org/Graphics/SVG/1.1/DTD/svg11.dtd"><svg t="1747995923893" class="icon" viewBox="0 0 1097 1024" version="1.1" xmlns="http://www.w3.org/2000/svg" p-id="13469" xmlns:xlink="http://www.w3.org/1999/xlink" width="214.2578125" height="200"><path d="M246.784 997.229714h658.432c100.790857 0 182.784-79.067429 182.784-176.274285V231.131429c0-97.206857-81.92-176.274286-182.857143-176.274286h-658.285714c-100.937143 0-182.857143 79.067429-182.857143 176.274286v589.824c0 97.206857 81.92 176.274286 182.857143 176.274285z m652.434286-635.757714a44.982857 44.982857 0 0 1 59.026285 0 39.350857 39.350857 0 0 1 0 56.905143l-382.244571 368.64L434.980571 650.971429l-158.72 152.868571a42.422857 42.422857 0 0 1-59.026285 0.146286 39.497143 39.497143 0 0 1 0-56.832l217.746285-209.92 141.019429 136.338285zM400.018286 213.650286a145.115429 145.115429 0 0 1 147.163428 142.336A145.115429 145.115429 0 0 1 400.091429 498.176a145.188571 145.188571 0 0 1-147.602286-142.189714A145.188571 145.188571 0 0 1 400.091429 213.650286z m43.958857 93.769143a64.073143 64.073143 0 0 0-108.397714 48.566857 62.976 62.976 0 0 0 64.438857 61.805714 64.073143 64.073143 0 0 0 43.958857-110.372571z" fill="#1296db" p-id="13470"></path></svg>